<svg width="22" height="22" viewBox="0 0 22 22" fill="none" xmlns="http://www.w3.org/2000/svg">
<g clip-path="url(#clip0_73_2402)">
<path d="M14.19 5.90771H7.67367C6.63356 5.90771 5.78735 6.75393 5.78735 7.79403V14.3104C5.78735 15.3505 6.63356 16.197 7.67367 16.197H14.19C15.2301 16.197 16.0766 15.3507 16.0766 14.3104V7.79403C16.0766 6.75393 15.2304 5.90771 14.19 5.90771ZM10.9319 14.4395C9.06429 14.4395 7.54481 12.92 7.54481 11.0522C7.54481 9.18465 9.06429 7.66518 10.9319 7.66518C12.7997 7.66518 14.3191 9.18465 14.3191 11.0522C14.3191 12.9198 12.7994 14.4395 10.9319 14.4395ZM14.428 8.36548C13.9859 8.36548 13.6264 8.00595 13.6264 7.56409C13.6264 7.12223 13.9859 6.7627 14.428 6.7627C14.8699 6.7627 15.2294 7.12223 15.2294 7.56409C15.2294 8.00595 14.8699 8.36548 14.428 8.36548Z" fill="white"/>
<path d="M10.9316 9.09619C9.85346 9.09619 8.97559 9.97358 8.97559 11.0517C8.97559 12.1303 9.85346 13.0079 10.9316 13.0079C12.0102 13.0079 12.8873 12.1303 12.8873 11.0517C12.8873 9.97383 12.0099 9.09619 10.9316 9.09619Z" fill="white"/>
<path d="M10.9318 0.0908203C4.89458 0.0908203 0 4.9854 0 11.0226C0 17.0599 4.89458 21.9545 10.9318 21.9545C16.9691 21.9545 21.8636 17.0599 21.8636 11.0226C21.8636 4.9854 16.9691 0.0908203 10.9318 0.0908203ZM17.5076 14.3103C17.5076 16.1399 16.0196 17.6279 14.19 17.6279H7.67363C5.84432 17.6279 4.35602 16.1399 4.35602 14.3103V7.79393C4.35602 5.96461 5.84432 4.47631 7.67363 4.47631H14.19C16.0196 4.47631 17.5076 5.96461 17.5076 7.79393V14.3103Z" fill="white"/>
</g>
<defs>
<clipPath id="clip0_73_2402">
<rect width="21.8636" height="21.8636" fill="white" transform="translate(0 0.0908203)"/>
</clipPath>
</defs>
</svg>
