<svg width="22" height="22" viewBox="0 0 22 22" fill="none" xmlns="http://www.w3.org/2000/svg">
<g clip-path="url(#clip0_73_2407)">
<path d="M10.9318 21.9994C16.9693 21.9994 21.8636 17.105 21.8636 11.0676C21.8636 5.03008 16.9693 0.135742 10.9318 0.135742C4.89434 0.135742 0 5.03008 0 11.0676C0 17.105 4.89434 21.9994 10.9318 21.9994Z" fill="white"/>
<path d="M17.4636 11.9476V16.4545H14.8506V12.2496C14.8506 11.1938 14.4734 10.4728 13.5273 10.4728C12.8053 10.4728 12.3764 10.9582 12.1869 11.4282C12.1182 11.5962 12.1004 11.8295 12.1004 12.0651V16.4543H9.48721C9.48721 16.4543 9.52229 9.3326 9.48721 8.5954H12.1006V9.70908C12.0954 9.71785 12.0879 9.72643 12.0833 9.73481H12.1006V9.70908C12.4479 9.17475 13.0672 8.41086 14.4556 8.41086C16.1748 8.41086 17.4636 9.53409 17.4636 11.9476ZM6.75358 4.80713C5.85971 4.80713 5.2749 5.39388 5.2749 6.16479C5.2749 6.91933 5.84275 7.52303 6.71928 7.52303H6.73623C7.64764 7.52303 8.21432 6.91933 8.21432 6.16479C8.19698 5.39388 7.64764 4.80713 6.75358 4.80713ZM5.43021 16.4545H8.04245V8.5954H5.43021V16.4545Z" fill="black"/>
</g>
<defs>
<clipPath id="clip0_73_2407">
<rect width="21.8636" height="21.8636" fill="white" transform="translate(0 0.13623)"/>
</clipPath>
</defs>
</svg>
