<svg width="62" height="62" viewBox="0 0 62 62" fill="none" xmlns="http://www.w3.org/2000/svg">
<path fill-rule="evenodd" clip-rule="evenodd" d="M34.8146 27.078C34.8146 29.2144 33.0827 30.9463 30.9464 30.9463C28.81 30.9463 27.0781 29.2144 27.0781 27.078C27.0781 24.9416 28.81 23.2097 30.9464 23.2097C33.0827 23.2097 34.8146 24.9416 34.8146 27.078ZM37.3935 27.078C37.3935 30.6386 34.507 33.5251 30.9464 33.5251C27.3857 33.5251 24.4992 30.6386 24.4992 27.078C24.4992 23.5173 27.3857 20.6309 30.9464 20.6309C34.507 20.6309 37.3935 23.5173 37.3935 27.078ZM24.5308 33.8994C24.7091 33.7617 24.9252 33.6768 25.1503 33.6692C25.8093 33.6469 26.144 33.8005 26.4014 34.0915C26.898 34.653 26.5716 35.5647 25.9875 36.0345C24.9135 36.8982 24.0832 38.0346 23.6044 39.3273H38.2871C37.8084 38.0348 36.9783 36.8987 35.9047 36.0351C35.3205 35.5652 34.9944 34.6533 35.4911 34.0917C35.7486 33.8006 36.0831 33.6471 36.742 33.6696C36.9671 33.6773 37.183 33.7622 37.3612 33.8998C39.4518 35.5143 40.8945 37.8999 41.244 40.6195C41.3348 41.3258 40.7488 41.9061 40.0366 41.9061H21.8549C21.1427 41.9061 20.5567 41.3258 20.6475 40.6195C20.997 37.8996 22.44 35.5139 24.5308 33.8994Z" fill="white"/>
</svg>
