<svg width="62" height="62" viewBox="0 0 62 62" fill="none" xmlns="http://www.w3.org/2000/svg">
<path fill-rule="evenodd" clip-rule="evenodd" d="M19.3413 23.2096C19.3413 22.4975 19.9186 21.9202 20.6307 21.9202H24.499C25.071 21.9202 25.5746 22.297 25.736 22.8458L28.6874 32.8803H37.676L38.9654 27.7226H30.9461C30.234 27.7226 29.6567 27.1453 29.6567 26.4332C29.6567 25.721 30.234 25.1437 30.9461 25.1437H40.6168C41.0139 25.1437 41.3888 25.3267 41.6332 25.6396C41.8775 25.9526 41.9641 26.3607 41.8678 26.7459L39.9336 34.4825C39.7901 35.0565 39.2744 35.4591 38.6827 35.4591H27.7226C27.1506 35.4591 26.6469 35.0823 26.4855 34.5336L23.5342 24.499H20.6307C19.9186 24.499 19.3413 23.9217 19.3413 23.2096ZM29.6567 38.6827C29.6567 40.107 28.5021 41.2616 27.0779 41.2616C25.6536 41.2616 24.499 40.107 24.499 38.6827C24.499 37.2584 25.6536 36.1039 27.0779 36.1039C28.5021 36.1039 29.6567 37.2584 29.6567 38.6827ZM38.6827 41.2616C40.107 41.2616 41.2616 40.107 41.2616 38.6827C41.2616 37.2584 40.107 36.1039 38.6827 36.1039C37.2584 36.1039 36.1039 37.2584 36.1039 38.6827C36.1039 40.107 37.2584 41.2616 38.6827 41.2616Z" fill="white"/>
</svg>
