<svg width="14" height="11" viewBox="0 0 14 11" fill="none" xmlns="http://www.w3.org/2000/svg">
<path d="M13.6278 1.85619C13.1593 2.06392 12.6554 2.20442 12.1269 2.26717C12.6665 1.94388 13.0806 1.43235 13.2761 0.82183C12.7712 1.12134 12.2117 1.33862 11.6168 1.45574C11.1401 0.948105 10.461 0.630859 9.709 0.630859C8.26619 0.630859 7.09601 1.80104 7.09601 3.24385C7.09601 3.44866 7.1192 3.64801 7.16402 3.83937C4.99241 3.73043 3.06692 2.69023 1.77806 1.10887C1.55318 1.49471 1.42418 1.94388 1.42418 2.42267C1.42418 3.32901 1.88582 4.12913 2.58657 4.5976C2.15844 4.58415 1.75526 4.46665 1.40313 4.27041C1.40294 4.28152 1.40294 4.29263 1.40294 4.30354C1.40294 5.5696 2.30401 6.62559 3.49913 6.86548C3.2801 6.9255 3.04879 6.95726 2.81086 6.95726C2.6421 6.95726 2.47861 6.94108 2.31921 6.91068C2.65165 7.94855 3.61644 8.70406 4.76013 8.7253C3.86568 9.42624 2.73915 9.84384 1.5146 9.84384C1.30414 9.84384 1.09563 9.83156 0.891602 9.80721C2.04737 10.5489 3.42119 10.9813 4.89673 10.9813C9.70296 10.9813 12.3313 6.99974 12.3313 3.54648C12.3313 3.43326 12.3288 3.32043 12.3237 3.20858C12.8347 2.84028 13.2776 2.38019 13.6278 1.85619Z" fill="black"/>
</svg>
